<svg width="14" height="14" viewBox="0 0 14 14" fill="none" xmlns="http://www.w3.org/2000/svg">
<path d="M13.8041 1.243L12.837 0.287376C12.5753 0.0256855 12.143 0.0256855 11.8699 0.287376L7.0457 5.11147L2.13059 0.196353C1.86878 -0.0654511 1.43642 -0.0654511 1.16347 0.196353L0.196353 1.16347C-0.0654511 1.42516 -0.0654511 1.85752 0.196353 2.13059L5.1002 7.03444L0.287376 11.87C0.0256855 12.1317 0.0256855 12.5641 0.287376 12.8371L1.25449 13.8043C1.51618 14.0659 1.94854 14.0659 2.22161 13.8043L7.0457 8.98005L11.8699 13.8043C12.1316 14.0659 12.564 14.0659 12.837 13.8043L13.8041 12.8371C14.0658 12.5754 14.0658 12.1431 13.8041 11.87L8.96856 7.04582L13.7928 2.22172C14.0658 1.94843 14.0658 1.51607 13.8041 1.243Z" fill="#3C3C3C"/>
</svg>
