<svg width="32" height="32" viewBox="0 0 32 32" fill="none" xmlns="http://www.w3.org/2000/svg">
<path d="M22.4553 10.2857H9.54463L16 15.8189L22.4553 10.2857Z" fill="white"/>
<path d="M16 17.1428C15.8635 17.1428 15.7315 17.094 15.628 17.005L8.57139 10.9565V21.7143H23.4285V10.9565L16.3719 17.005C16.2684 17.094 16.1364 17.1428 16 17.1428Z" fill="white"/>
<path d="M16 0C7.1635 0 0 7.1635 0 16C0 24.8365 7.1635 32 16 32C24.8365 32 32 24.8365 32 16C31.99 7.16769 24.8323 0.0100446 16 0ZM24.5714 22.2857C24.5714 22.6013 24.3156 22.8571 24 22.8571H8C7.68443 22.8571 7.42857 22.6013 7.42857 22.2857V9.71429C7.42857 9.39872 7.68443 9.14286 8 9.14286H24C24.3156 9.14286 24.5714 9.39872 24.5714 9.71429V22.2857Z" fill="white"/>
</svg>
