<svg width="100" height="100" viewBox="0 0 100 100" fill="none" xmlns="http://www.w3.org/2000/svg">
<g clip-path="url(#clip0)">
<path d="M83.734 12.352C75.7686 4.38672 65.1781 0 53.9139 0C42.6492 0 32.0588 4.38672 24.0938 12.352C16.2106 20.2352 11.8326 30.6885 11.7434 41.823L4.06916 57.1715C3.72619 57.8574 3.96916 58.6918 4.62678 59.0863L11.742 63.3555V86.0078C11.742 86.8184 12.3992 87.4756 13.2098 87.4756H27.3977V98.5324C27.3977 99.343 28.0549 100 28.8654 100C29.676 100 30.3332 99.343 30.3332 98.5324V86.0078C30.3332 85.1973 29.676 84.54 28.8654 84.54H14.6772V62.5244C14.6772 62.009 14.4067 61.5311 13.9647 61.2658L7.30217 57.2684L14.5221 42.8285C14.624 42.6246 14.6772 42.4002 14.6772 42.1721C14.6772 20.5369 32.2787 2.93535 53.9139 2.93535C75.549 2.93535 93.1506 20.5369 93.1506 42.1721C93.1506 54.3297 87.6498 65.6025 78.0588 73.101C77.7029 73.3791 77.4949 73.8057 77.4949 74.2574V98.5322C77.4949 99.3428 78.152 100 78.9627 100C79.7735 100 80.4305 99.3428 80.4305 98.5322V74.9654C90.3899 66.9096 96.0862 54.999 96.0862 42.1723C96.086 30.9076 91.6994 20.3172 83.734 12.352Z" fill="#C4C4C4"/>
<path d="M53.9139 17.2211C48.7885 17.2211 44.6184 21.3912 44.6184 26.5166C44.6184 31.642 48.7883 35.8121 53.9139 35.8121C59.0393 35.8121 63.2094 31.642 63.2094 26.5166C63.2094 21.3912 59.0393 17.2211 53.9139 17.2211ZM53.9139 32.8767C50.4069 32.8767 47.5537 30.0234 47.5537 26.5166C47.5537 23.0097 50.4067 20.1564 53.9139 20.1564C57.4209 20.1564 60.274 23.0097 60.274 26.5166C60.2739 30.0234 57.4209 32.8767 53.9139 32.8767Z" fill="#C4C4C4"/>
<path d="M53.9139 9.39331C53.1031 9.39331 52.4461 10.0505 52.4461 10.8611V13.9921C52.4461 14.8027 53.1031 15.4599 53.9139 15.4599C54.7246 15.4599 55.3816 14.8027 55.3816 13.9921V10.8611C55.3814 10.0503 54.7246 9.39331 53.9139 9.39331Z" fill="#C4C4C4"/>
<path d="M48.9225 14.9364L47.3568 12.2248C46.9516 11.5229 46.0537 11.2825 45.3519 11.6877C44.65 12.093 44.4096 12.9907 44.8148 13.6926L46.3805 16.4041C46.6525 16.8748 47.1459 17.1381 47.6529 17.1381C48.7658 17.1381 49.4756 15.8946 48.9225 14.9364Z" fill="#C4C4C4"/>
<path d="M43.8012 18.9834L41.0896 17.4178C40.3877 17.0121 39.49 17.2529 39.0848 17.9549C38.6795 18.6568 38.9199 19.5545 39.6219 19.9598L42.3334 21.5254C43.082 21.9578 44.066 21.6318 44.4123 20.842C44.7086 20.1664 44.4396 19.3519 43.8012 18.9834Z" fill="#C4C4C4"/>
<path d="M41.3893 25.0488H38.2582C37.4475 25.0488 36.7904 25.7061 36.7904 26.5166C36.7904 27.3271 37.4477 27.9844 38.2582 27.9844H41.3893C42.1998 27.9844 42.857 27.3271 42.857 26.5166C42.857 25.7061 42.2 25.0488 41.3893 25.0488Z" fill="#C4C4C4"/>
<path d="M44.3383 32.0451C43.933 31.3429 43.0354 31.1023 42.3334 31.5078L39.6219 33.0734C38.9834 33.4419 38.7145 34.2564 39.0107 34.9324C39.3568 35.7222 40.3408 36.0482 41.0896 35.6158L43.8012 34.0501C44.5031 33.6447 44.7436 32.747 44.3383 32.0451Z" fill="#C4C4C4"/>
<path d="M48.3854 36.0921C47.683 35.6865 46.7856 35.9271 46.3803 36.6292L44.8147 39.3408C44.4459 39.9792 44.6203 40.8191 45.2149 41.2562C45.9111 41.7681 46.9254 41.5558 47.3569 40.8085L48.9225 38.097C49.3279 37.3951 49.0873 36.4974 48.3854 36.0921Z" fill="#C4C4C4"/>
<path d="M53.9139 37.5735C53.1031 37.5735 52.4461 38.2307 52.4461 39.0413V42.1723C52.4461 42.9829 53.1031 43.6401 53.9139 43.6401C54.7246 43.6401 55.3816 42.9829 55.3816 42.1723V39.0411C55.3814 38.2305 54.7246 37.5735 53.9139 37.5735Z" fill="#C4C4C4"/>
<path d="M63.0129 39.3408L61.4473 36.6293C61.0418 35.9271 60.1437 35.6867 59.4422 36.0922C58.7402 36.4974 58.4998 37.3951 58.9051 38.097L60.4707 40.8086C60.9019 41.5558 61.9164 41.7683 62.6127 41.2562C63.207 40.8191 63.3812 39.9795 63.0129 39.3408Z" fill="#C4C4C4"/>
<path d="M68.2057 33.0733L65.4941 31.5076C64.7916 31.1022 63.8943 31.3428 63.4892 32.0448C63.084 32.7469 63.3244 33.6446 64.0264 34.0498L66.7379 35.6155C67.4869 36.0477 68.4703 35.7221 68.8168 34.9321C69.1131 34.2565 68.8439 33.4418 68.2057 33.0733Z" fill="#C4C4C4"/>
<path d="M69.5693 25.0488H66.4383C65.6276 25.0488 64.9705 25.7061 64.9705 26.5166C64.9705 27.3271 65.6276 27.9844 66.4383 27.9844H69.5693C70.3801 27.9844 71.0371 27.3271 71.0371 26.5166C71.0371 25.7061 70.3801 25.0488 69.5693 25.0488Z" fill="#C4C4C4"/>
<path d="M68.743 17.9552C68.3379 17.2531 67.4398 17.0124 66.7381 17.4179L64.0266 18.9835C63.3881 19.3523 63.1191 20.1665 63.4154 20.8425C63.7615 21.6324 64.7455 21.9583 65.4943 21.5259L68.2059 19.9603C68.9078 19.5548 69.1482 18.6572 68.743 17.9552Z" fill="#C4C4C4"/>
<path d="M62.4754 11.6877C61.7728 11.2822 60.8754 11.5229 60.4705 12.2248L58.9049 14.9363C58.3516 15.8943 59.0613 17.1381 60.1746 17.1381C60.6818 17.1381 61.1752 16.8746 61.4471 16.4041L63.0127 13.6926C63.418 12.9906 63.1773 12.093 62.4754 11.6877Z" fill="#C4C4C4"/>
<path d="M82.5096 63.2193L73.3291 54.0389C68.2238 48.9338 60.1238 48.6066 54.6336 53.0557L47.8676 46.2896C46.0949 44.5168 43.1367 44.5168 41.3639 46.2896C40.9549 46.6986 40.6338 47.1715 40.4068 47.6852L37.9043 45.1826C36.1113 43.3896 33.1937 43.3896 31.4006 45.1826C30.9916 45.5916 30.6705 46.0645 30.4436 46.5781L29.048 45.1826C27.2549 43.3896 24.3375 43.3896 22.5443 45.1826C20.7715 46.9555 20.7715 49.9135 22.5443 51.6863L23.8826 53.0246C23.4387 53.2178 23.0176 53.4813 22.6412 53.8238C20.7275 55.5656 20.6478 58.6459 22.4816 60.4799L24.7582 62.7564C25.3236 63.3221 26.2684 63.3219 26.8338 62.7564C27.3992 62.191 27.3994 61.2463 26.8338 60.6809L24.5572 58.4043C23.866 57.7131 23.9291 56.5316 24.6994 55.9248C25.3742 55.3934 26.3791 55.5213 26.9719 56.1137L33.5473 62.6893L33.7092 62.8512C33.8857 65.2109 35.8516 67.0857 38.2594 67.1041L50.0977 67.1932C50.1016 67.1932 50.1053 67.1932 50.109 67.1932C50.9145 67.1932 51.5705 66.5432 51.5766 65.7363C51.5826 64.9258 50.9305 64.2637 50.1199 64.2576L38.2814 64.1686C37.3643 64.1617 36.6234 63.4098 36.6305 62.4926C36.6373 61.5797 37.3822 60.8416 38.2937 60.8416C38.2978 60.8416 38.3021 60.8416 38.3062 60.8416L49.8006 60.9281C50.2824 61.0461 50.8121 60.9184 51.1887 60.5422L55.6164 56.1143C59.9277 51.8035 66.9424 51.8035 71.2529 56.1143L80.4334 65.2947C81.0305 65.8916 82.0383 65.8516 82.5873 65.2105C83.0791 64.6363 83.0438 63.7537 82.5096 63.2193ZM34.6779 59.6686L24.6199 49.6105C23.9787 48.9695 23.9789 47.8992 24.6199 47.258C25.2686 46.6098 26.3238 46.6098 26.9725 47.258L37.6646 57.9502C36.458 58.1162 35.3984 58.7523 34.6779 59.6686ZM41.7891 57.9322C41.7635 57.9022 41.7377 57.8723 41.7092 57.8439L33.4758 49.6104C32.835 48.9695 32.8352 47.8992 33.476 47.258C34.1244 46.6098 35.1799 46.6098 35.8285 47.258L41.3615 52.791C41.3621 52.7916 41.3627 52.7924 41.3635 52.793L46.5383 57.9678L41.7891 57.9322ZM50.1504 57.4291L43.4377 50.7162C43.1246 50.4021 42.952 49.9852 42.952 49.5414C42.952 48.0889 44.7646 47.3383 45.7916 48.3652L52.5027 55.0766L50.1504 57.4291Z" fill="#C4C4C4"/>
<path d="M72.5461 73.182L67.7936 68.4299C67.4465 68.083 66.9492 67.9324 66.468 68.0285L55.5402 70.2141H36.3672L32.369 66.2158C31.7957 65.6426 30.8664 65.6426 30.2934 66.2158C29.7201 66.7891 29.7201 67.7184 30.2934 68.2914L34.7213 72.7193C34.9965 72.9947 35.3697 73.1492 35.759 73.1492H55.6856C55.7822 73.1492 55.8785 73.1396 55.9734 73.1207L66.2734 71.0605L70.4701 75.2574C71.067 75.8543 72.075 75.8143 72.624 75.1732C73.1158 74.599 73.0803 73.7162 72.5461 73.182Z" fill="#C4C4C4"/>
</g>
<defs>
<clipPath id="clip0">
<rect width="100" height="100" fill="white"/>
</clipPath>
</defs>
</svg>
