<svg width="13" height="13" viewBox="0 0 13 13" fill="none" xmlns="http://www.w3.org/2000/svg">
<path d="M12.9645 3.82205C12.934 3.13131 12.8223 2.65643 12.6623 2.24494C12.4972 1.80815 12.2433 1.4171 11.9106 1.09201C11.5855 0.76187 11.1918 0.505334 10.7601 0.342841C10.3463 0.182829 9.87385 0.0711277 9.18311 0.0406727C8.48721 0.00763853 8.26629 0 6.50129 0C4.73629 0 4.51537 0.00763853 3.82205 0.0380935C3.1313 0.0685485 2.65643 0.180349 2.24504 0.340262C1.80815 0.505334 1.4171 0.759291 1.09201 1.09201C0.76187 1.4171 0.505433 1.81073 0.342841 2.24246C0.182829 2.65643 0.0711277 3.12873 0.0406727 3.81947C0.00763853 4.51537 0 4.73629 0 6.50129C0 8.26629 0.00763853 8.48721 0.0380935 9.18053C0.0685484 9.87127 0.180349 10.3462 0.340361 10.7576C0.505433 11.1944 0.76187 11.5855 1.09201 11.9106C1.4171 12.2407 1.81073 12.4972 2.24246 12.6597C2.65643 12.8198 3.12873 12.9315 3.81957 12.9619C4.51279 12.9925 4.73381 13 6.49881 13C8.26381 13 8.48473 12.9925 9.17805 12.9619C9.86879 12.9315 10.3437 12.8198 10.7551 12.6597C11.6287 12.322 12.3195 11.6312 12.6573 10.7576C12.8172 10.3437 12.929 9.87127 12.9594 9.18053C12.9899 8.48721 12.9975 8.26629 12.9975 6.50129C12.9975 4.73629 12.9949 4.51537 12.9645 3.82205ZM11.7938 9.12974C11.7658 9.76463 11.6592 10.1075 11.5703 10.336C11.3519 10.9024 10.9024 11.3519 10.336 11.5703C10.1075 11.6592 9.76215 11.7658 9.12974 11.7937C8.44406 11.8243 8.23841 11.8318 6.50387 11.8318C4.76932 11.8318 4.5611 11.8243 3.8779 11.7937C3.24301 11.7658 2.90016 11.6592 2.6716 11.5703C2.38977 11.4661 2.13324 11.3011 1.92501 11.0852C1.70915 10.8744 1.54408 10.6204 1.43991 10.3386C1.35103 10.1101 1.24439 9.76463 1.21651 9.13232C1.18596 8.44664 1.17842 8.24089 1.17842 6.50635C1.17842 4.77181 1.18596 4.56358 1.21651 3.88048C1.24439 3.24559 1.35103 2.90274 1.43991 2.67418C1.54408 2.39225 1.70915 2.13581 1.92759 1.92749C2.13829 1.71163 2.39225 1.54656 2.67418 1.44249C2.90274 1.35361 3.24816 1.24697 3.88048 1.21899C4.56616 1.18854 4.7719 1.1809 6.50635 1.1809C8.24347 1.1809 8.44912 1.18854 9.13232 1.21899C9.76721 1.24697 10.1101 1.35361 10.3386 1.44249C10.6204 1.54656 10.877 1.71163 11.0852 1.92749C11.3011 2.13829 11.4661 2.39225 11.5703 2.67418C11.6592 2.90274 11.7658 3.24807 11.7938 3.88048C11.8243 4.56616 11.8319 4.77181 11.8319 6.50635C11.8319 8.24089 11.8243 8.44406 11.7938 9.12974Z" fill="#3C3C3C"/>
<path d="M6.50188 3.16187C4.65822 3.16187 3.16235 4.65763 3.16235 6.50139C3.16235 8.34516 4.65822 9.84092 6.50188 9.84092C8.34565 9.84092 9.84141 8.34516 9.84141 6.50139C9.84141 4.65763 8.34565 3.16187 6.50188 3.16187ZM6.50188 8.66766C5.30581 8.66766 4.33561 7.69757 4.33561 6.50139C4.33561 5.30522 5.30581 4.33512 6.50188 4.33512C7.69806 4.33512 8.66815 5.30522 8.66815 6.50139C8.66815 7.69757 7.69806 8.66766 6.50188 8.66766Z" fill="#3C3C3C"/>
<path d="M10.7534 3.02997C10.7534 3.4607 10.4042 3.80994 9.97333 3.80994C9.5426 3.80994 9.19336 3.4607 9.19336 3.02997C9.19336 2.59915 9.5426 2.25 9.97333 2.25C10.4042 2.25 10.7534 2.59915 10.7534 3.02997Z" fill="#3C3C3C"/>
</svg>
