<svg width="20" height="26" viewBox="0 0 20 26" fill="none" xmlns="http://www.w3.org/2000/svg">
<g opacity="0.5">
<path d="M18.2056 4.97208C16.3184 2.25231 13.3274 0.692139 10.0002 0.692139C6.67292 0.692139 3.68193 2.25231 1.79469 4.97208C-0.0832833 7.6781 -0.516913 11.104 0.632417 14.1307C0.939835 14.9573 1.42851 15.7603 2.08139 16.5128L9.3421 25.005C9.50632 25.1972 9.74691 25.308 10.0002 25.308C10.2534 25.308 10.494 25.1973 10.6582 25.005L17.9169 16.5151C18.5727 15.7583 19.0607 14.9561 19.3656 14.1362C20.5172 11.104 20.0836 7.6781 18.2056 4.97208ZM17.7469 13.5334C17.5118 14.166 17.128 14.7915 16.6068 15.3931C16.6054 15.3945 16.6039 15.3959 16.6028 15.3977L10.0002 23.1198L3.39348 15.3928C2.87256 14.7917 2.48876 14.1664 2.25135 13.5277C1.30085 11.0245 1.66157 8.19195 3.21658 5.95099C4.77646 3.70287 7.24913 2.41352 10.0002 2.41352C12.7511 2.41352 15.2235 3.70282 16.7834 5.95099C18.3387 8.19195 18.6997 11.0245 17.7469 13.5334Z" fill="#3C3C3C"/>
<path d="M10.0001 5.79907C7.33125 5.79907 5.15967 7.96113 5.15967 10.619C5.15967 13.2768 7.33096 15.4389 10.0001 15.4389C12.6693 15.4389 14.8406 13.2768 14.8406 10.619C14.8406 7.96142 12.669 5.79907 10.0001 5.79907ZM10.0001 13.7175C8.28436 13.7175 6.8884 12.3274 6.8884 10.6189C6.8884 8.91043 8.28436 7.5204 10.0001 7.5204C11.7159 7.5204 13.1119 8.91043 13.1119 10.6189C13.1119 12.3274 11.7159 13.7175 10.0001 13.7175Z" fill="#3C3C3C"/>
</g>
</svg>
