<svg width="19" height="25" viewBox="0 0 19 25" fill="none" xmlns="http://www.w3.org/2000/svg">
<g opacity="0.5">
<path d="M18.2692 0H0.730769C0.32719 0 0 0.32793 0 0.732422V24.2676C0 24.6721 0.32719 25 0.730769 25H18.2692C18.6728 25 19 24.6721 19 24.2676V0.732422C19 0.32793 18.6728 0 18.2692 0ZM17.5385 3.35874L15.6488 1.46484H17.5385V3.35874ZM14.6154 2.50063L16.505 4.39453H14.6154V2.50063ZM1.46154 23.5352V1.46484H13.1538V5.12695C13.1538 5.53145 13.481 5.85938 13.8846 5.85938H17.5385V23.5352H1.46154Z" fill="#3C3C3C"/>
<path d="M3.65606 4.39453H10.9637C11.3672 4.39453 11.6944 4.0666 11.6944 3.66211C11.6944 3.25762 11.3672 2.92969 10.9637 2.92969H3.65606C3.25248 2.92969 2.92529 3.25762 2.92529 3.66211C2.92529 4.0666 3.25243 4.39453 3.65606 4.39453Z" fill="#3C3C3C"/>
<path d="M3.65606 7.32434H10.9637C11.3672 7.32434 11.6944 6.99641 11.6944 6.59192C11.6944 6.18743 11.3672 5.8595 10.9637 5.8595H3.65606C3.25248 5.8595 2.92529 6.18743 2.92529 6.59192C2.92529 6.99641 3.25243 7.32434 3.65606 7.32434Z" fill="#3C3C3C"/>
<path d="M15.3481 8.78906H3.65582C3.25224 8.78906 2.92505 9.11699 2.92505 9.52148C2.92505 9.92598 3.25224 10.2539 3.65582 10.2539H15.3481C15.7517 10.2539 16.0789 9.92598 16.0789 9.52148C16.0789 9.11699 15.7517 8.78906 15.3481 8.78906Z" fill="#3C3C3C"/>
<path d="M15.3481 11.7189H3.65582C3.25224 11.7189 2.92505 12.0468 2.92505 12.4513C2.92505 12.8558 3.25224 13.1837 3.65582 13.1837H15.3481C15.7517 13.1837 16.0789 12.8558 16.0789 12.4513C16.0789 12.0468 15.7517 11.7189 15.3481 11.7189Z" fill="#3C3C3C"/>
<path d="M15.3481 14.6486H3.65582C3.25224 14.6486 2.92505 14.9765 2.92505 15.381C2.92505 15.7855 3.25224 16.1134 3.65582 16.1134H15.3481C15.7517 16.1134 16.0789 15.7855 16.0789 15.381C16.0789 14.9765 15.7517 14.6486 15.3481 14.6486Z" fill="#3C3C3C"/>
<path d="M15.3481 17.5781H3.65582C3.25224 17.5781 2.92505 17.9061 2.92505 18.3105C2.92505 18.715 3.25224 19.043 3.65582 19.043H15.3481C15.7517 19.043 16.0789 18.715 16.0789 18.3105C16.0789 17.9061 15.7517 17.5781 15.3481 17.5781Z" fill="#3C3C3C"/>
<path d="M15.3481 20.5079H3.65582C3.25224 20.5079 2.92505 20.8359 2.92505 21.2404C2.92505 21.6448 3.25224 21.9728 3.65582 21.9728H15.3481C15.7517 21.9728 16.0789 21.6448 16.0789 21.2404C16.0789 20.8359 15.7517 20.5079 15.3481 20.5079Z" fill="#3C3C3C"/>
</g>
</svg>
