<svg width="95" height="96" viewBox="0 0 95 96" fill="none" xmlns="http://www.w3.org/2000/svg">
<path d="M54.9929 23.4754C50.3062 21.2374 44.811 21.2667 40.1419 23.5339C35.1036 25.9828 31.3015 28.7362 31.3015 32.2864C31.3015 37.5238 39.6263 41.0975 47.4707 44.2141C55.8541 40.9217 64.0852 37.4477 64.0852 32.2864C64.0852 28.7186 60.0897 25.9066 54.9929 23.4754Z" fill="#3C3C3C"/>
<path d="M47.5 0.627563C21.266 0.627563 0 21.8936 0 48.1276C0 74.3615 21.266 95.6276 47.5 95.6276C73.734 95.6276 95 74.3615 95 48.1276C95 21.8936 73.7281 0.627563 47.5 0.627563ZM59.2695 49.3285C59.3633 49.3754 59.457 49.4281 59.5507 49.475C60.5877 50.014 61.5836 50.5764 62.5268 51.1681C62.5268 51.1681 62.5268 51.1681 62.5327 51.1681C67.5065 54.3023 70.9805 58.245 70.9805 63.998C70.9805 74.4787 59.2403 79.1244 48.8767 83.2253C48.8357 83.2429 48.7888 83.237 48.7478 83.2487C48.3729 83.3835 47.9804 83.4714 47.5762 83.4714C47.5644 83.4714 47.5527 83.4772 47.541 83.4772C47.1251 83.4772 46.7208 83.3835 46.3342 83.2487C46.2932 83.237 46.2522 83.2429 46.217 83.2253C35.1153 78.8842 23.6387 74.4025 23.6387 63.9921C23.6387 58.1865 27.3236 54.1617 32.397 51.0275C32.6665 50.8634 33.0063 50.8459 33.2934 50.9865C35.3204 51.9824 37.4001 52.8904 39.4564 53.7341C40.1887 54.0328 40.2297 55.0581 39.515 55.4037C34.5881 57.7939 30.9207 60.5005 30.9207 63.9921C30.9207 67.5775 34.8927 70.3485 40.136 72.8149C44.811 75.0118 50.2769 75.0118 54.9285 72.7622C59.9374 70.3427 63.7102 67.5951 63.7102 63.9921C63.7102 60.2017 59.3633 57.3194 53.8271 54.7476C52.6613 54.2027 51.4369 53.6755 50.1949 53.1541C50.148 53.1365 50.1011 53.1131 50.0543 53.0955C48.8181 52.58 47.5644 52.0703 46.3107 51.5665C35.7773 47.4011 24.0371 42.7495 24.0371 32.2688C24.0371 21.9405 35.2032 17.4412 46.0002 13.0943C46.0178 13.0884 46.0413 13.0825 46.0588 13.0767C46.92 12.69 47.9277 12.6314 48.8767 13.0005C59.4277 17.1248 71.3847 21.794 71.3847 32.2688C71.3847 40.0957 64.8878 44.5774 56.9438 48.1627C57.7288 48.5494 58.5021 48.936 59.2695 49.3285Z" fill="#3C3C3C"/>
</svg>
